<svg width="118" height="133" viewBox="0 0 118 133" fill="none" xmlns="http://www.w3.org/2000/svg">
<path d="M87.7836 26.211C86.434 24.8609 86.434 22.6774 87.7836 21.3273L89.4272 19.6895C90.7822 18.3447 92.9734 18.3447 94.3284 19.6895C95.6729 21.0402 95.6729 23.2185 94.3284 24.5691L92.6806 26.211C91.3251 27.5508 89.1391 27.5508 87.7836 26.211Z" fill="#83FFA3"/>
<path opacity="0.4" d="M87.7836 26.211C86.434 24.8609 86.434 22.6774 87.7836 21.3273L89.4272 19.6895C90.7822 18.3447 92.9734 18.3447 94.3284 19.6895C95.6729 21.0402 95.6729 23.2185 94.3284 24.5691L92.6806 26.211C91.3251 27.5508 89.1391 27.5508 87.7836 26.211Z" fill="white"/>
<path d="M90.0973 23.9182C88.3548 22.1775 88.3548 19.3599 90.0973 17.6192L93.317 14.411C95.0639 12.6747 97.8915 12.6747 99.6384 14.411C101.383 16.1507 101.383 18.9702 99.6384 20.7099L96.4103 23.9182C94.6625 25.6443 91.8451 25.6443 90.0973 23.9182Z" fill="#83FFA3"/>
<path d="M94.5854 19.4292C91.6065 16.4759 86.7927 16.4759 83.8137 19.4292L94.5854 30.1667C97.5474 27.196 97.5474 22.3999 94.5854 19.4292Z" fill="#83FFA3"/>
<path d="M98.9556 40.2492C98.5949 40.2492 98.3024 39.9578 98.3024 39.5983C98.3024 39.2388 98.5949 38.9474 98.9556 38.9474C105.473 38.9474 110.756 33.6832 110.756 27.1894C110.756 20.6956 105.473 15.4314 98.9556 15.4314C98.7105 15.4511 98.4751 15.3319 98.3465 15.123C98.2178 14.9142 98.2178 14.651 98.3465 14.4422C98.4751 14.2333 98.7105 14.1142 98.9556 14.1338C103.693 14.0492 108.108 16.5193 110.502 20.5941C112.896 24.669 112.896 29.714 110.502 33.7889C108.108 37.8638 103.693 40.3339 98.9556 40.2492Z" fill="#83FFA3"/>
<path fill-rule="evenodd" clip-rule="evenodd" d="M99.9334 58.0793L114.843 128.627L115.581 128.606L115.442 130.63H81.3989L81.5675 128.149H83.8643L83.8348 128.606H94.1219L105.682 95.2388L97.94 58.6211L99.9334 58.0793ZM112.736 128.627L105.993 96.6582L94.9015 128.627H112.736Z" fill="#83FFA3"/>
<path fill-rule="evenodd" clip-rule="evenodd" d="M25.7072 58.1003L40.6005 128.627H41.338L41.1989 130.651H7.16016L7.32451 128.17H9.62551L9.5918 128.627H19.8915L31.4513 95.2598L23.7139 58.642L25.7072 58.1003ZM38.4934 128.627L31.7505 96.6582L20.6501 128.627H38.4934Z" fill="#83FFA3"/>
<path d="M106.735 93.114L104.818 98.6445H30.7601L32.6734 93.114H106.735Z" fill="#83FFA3"/>
<path d="M103.819 97.2839L104.818 98.6445H30.7601L29.7614 97.2839H103.819Z" fill="#83FFA3"/>
<path opacity="0.2" d="M103.819 97.2839L104.818 98.6445H30.7601L29.7614 97.2839H103.819Z" fill="black"/>
<path d="M91.9052 84.5853H1.4498L0.13916 83.2835L116.584 33.925L117.891 35.2268L91.9052 84.5853Z" fill="#83FFA3"/>
<path opacity="0.4" d="M91.9052 84.5853H1.4498L0.13916 83.2835L116.584 33.925L117.891 35.2268L91.9052 84.5853Z" fill="black"/>
<path d="M12.9576 55.7744L15.4676 51.0024L15.8409 51.1973L13.3308 55.9693L12.9576 55.7744Z" fill="#83FFA3"/>
<path d="M10.9376 59.6103L12.131 57.3415L12.5042 57.5364L11.3108 59.8052L10.9376 59.6103Z" fill="#83FFA3"/>
<path d="M90.5946 83.2835H0.13916L26.1287 33.925H116.584L90.5946 83.2835Z" fill="#83FFA3"/>
<path opacity="0.3" d="M81.5002 75.3679L17.481 75.5946L36.42 40.2954C51.5914 41.3788 74.3148 41.4796 99.1707 40.9883L81.5002 75.3679Z" fill="black"/>
<path d="M80.5772 75.5947H17.1185L35.3495 40.9673C54.8954 41.6896 75.8277 41.2277 98.3742 40.6062C94.8805 49.3323 88.5422 61.9932 80.5772 75.5947Z" fill="white"/>
<g opacity="0.6">
<path d="M28.2949 71.5129C34.2595 71.4793 40.2241 71.4513 46.1887 71.4289L65.3848 71.3407L75.0229 71.2945C75.1025 71.2817 75.161 71.2132 75.161 71.1329C75.161 71.0525 75.1025 70.984 75.0229 70.9712L57.129 71.0552L37.9329 71.1392L28.2949 71.1854C28.2041 71.1854 28.1305 71.2587 28.1305 71.3491C28.1305 71.4396 28.2041 71.5129 28.2949 71.5129Z" fill="#83FFA3"/>
<path d="M74.2348 71.8279C78.0586 64.5771 81.9174 57.3431 85.8114 50.126C86.9353 48.0487 88.0591 45.9715 89.1829 43.8942C89.284 43.7095 89.0017 43.5457 88.9005 43.7262C84.9672 50.9406 81.0802 58.1746 77.2396 65.4282C76.1354 67.5082 75.0369 69.5869 73.944 71.6641C73.8471 71.8489 74.1252 72.0127 74.2264 71.8279H74.2348Z" fill="#83FFA3"/>
<path d="M89.3767 44.0454C83.384 44.079 77.3927 44.107 71.4027 44.1294L51.9791 44.2176L42.3705 44.2638C42.2798 44.2638 42.2062 44.3371 42.2062 44.4275C42.2062 44.518 42.2798 44.5913 42.3705 44.5913C48.3632 44.5577 54.3546 44.5297 60.3445 44.5073L79.7681 44.4191L89.3767 44.373C89.4674 44.373 89.541 44.2996 89.541 44.2092C89.541 44.1187 89.4674 44.0454 89.3767 44.0454Z" fill="#83FFA3"/>
<path d="M43.5041 43.4575C39.6439 50.7894 35.7428 58.1032 31.8011 65.3987C30.6773 67.49 29.545 69.5784 28.4044 71.6641C28.3032 71.8488 28.5856 72.0126 28.6867 71.8278C32.6538 64.5491 36.5871 57.2367 40.4867 49.8908C41.5937 47.8023 42.6978 45.7125 43.7991 43.6212C43.9003 43.4365 43.6179 43.2727 43.5168 43.4575H43.5041Z" fill="#83FFA3"/>
<path d="M49.8845 68.0107L56.4715 55.0685L58.2457 51.5915C58.3426 51.4067 58.0603 51.2387 57.9633 51.4277L51.1657 64.7394L49.5853 67.8259C49.4926 68.0149 49.775 68.1787 49.8677 67.9897L49.8845 68.0107Z" fill="#83FFA3"/>
<path d="M34.2496 68.0652L38.0425 60.6325C38.1352 60.4435 37.8529 60.2798 37.7601 60.4645L33.9673 67.9015C33.8746 68.0904 34.1569 68.2542 34.2496 68.0652Z" fill="#83FFA3"/>
<path d="M71.643 68.0107C74.7995 62.3374 77.5851 56.4668 80.5773 50.7054C81.3106 49.2944 82.0523 47.8835 82.8277 46.5061C82.9289 46.3213 82.6465 46.1576 82.5454 46.3423C79.3889 52.0114 76.599 57.8862 73.6111 63.6434C72.8778 65.0586 72.1361 66.4653 71.3606 67.8427C71.2595 68.0233 71.5376 68.1912 71.643 68.0065V68.0107Z" fill="#83FFA3"/>
<path d="M54.3265 67.9687C57.1922 62.3543 60.0874 56.7482 62.9447 51.1296L63.914 49.2231L64.4366 48.1943L64.6936 47.6819C64.7653 47.5434 64.8749 47.157 65.0181 47.0814C65.2292 47.052 65.4434 47.052 65.6545 47.0814H66.4594H68.1831C70.7482 47.0562 73.3118 47.0352 75.8741 47.0185C78.4659 47.0185 81.0535 46.9975 83.6453 47.0436C83.7249 47.0308 83.7834 46.9623 83.7834 46.882C83.7834 46.8016 83.7249 46.7331 83.6453 46.7203C77.3955 46.6111 71.1415 46.7203 64.8959 46.7917C64.8373 46.7909 64.7827 46.8213 64.7526 46.8715C61.2211 53.8801 57.6136 60.8509 54.0441 67.8385C53.9472 68.0275 54.2296 68.1913 54.3265 68.0023V67.9687Z" fill="#83FFA3"/>
<path d="M71.6682 67.8889C70.13 62.3668 68.2968 56.9287 66.5352 51.4781C66.0379 49.9439 65.5435 48.4112 65.0518 46.8798C64.9886 46.6783 64.6725 46.7623 64.7357 46.9638C66.5184 52.5531 68.3895 58.1171 70.1047 63.7274C70.5262 65.1384 70.9476 66.5535 71.369 67.9771C71.3971 68.0594 71.4849 68.1056 71.569 68.0821C71.653 68.0587 71.704 67.9738 71.6851 67.8889H71.6682Z" fill="#83FFA3"/>
<path d="M82.7392 46.733C79.2582 49.6725 75.5243 52.276 71.8031 54.888C67.7743 57.7141 63.7117 60.4898 59.7545 63.4083C57.7991 64.8487 55.8647 66.3226 54.0104 67.889C53.8503 68.0233 54.0821 68.2543 54.2422 68.1199C57.7906 65.1258 61.5919 62.4383 65.389 59.7675C69.3883 56.954 73.4298 54.1951 77.3744 51.3018C79.2793 49.9076 81.1673 48.4799 82.971 46.9639C83.1311 46.8253 82.8993 46.5986 82.7392 46.733Z" fill="#83FFA3"/>
<path d="M53.7154 67.9225C58.5365 68.061 63.3577 68.1156 68.1788 68.1198C69.342 68.1198 70.5093 68.1198 71.6725 68.0946C71.7521 68.0818 71.8106 68.0133 71.8106 67.933C71.8106 67.8526 71.7521 67.7841 71.6725 67.7713C66.8387 67.8637 61.9796 67.7713 57.1585 67.6789C56.0122 67.6537 54.8617 67.6327 53.7154 67.5991C53.6358 67.6119 53.5773 67.6804 53.5773 67.7608C53.5773 67.8412 53.6358 67.9096 53.7154 67.9225Z" fill="#83FFA3"/>
<path d="M47.0316 68.1198C50.1038 62.4214 52.9316 56.6054 55.9111 50.8523C56.6444 49.4302 57.3889 48.0136 58.1446 46.6027C58.2416 46.4179 57.9592 46.2541 57.8623 46.4389C54.7901 52.1373 51.9623 57.9533 48.9828 63.7064C48.2495 65.1299 47.512 66.5493 46.7492 67.956C46.6523 68.1408 46.9346 68.3046 47.0316 68.1198Z" fill="#83FFA3"/>
<path d="M37.9581 68.0484C39.8799 64.2859 41.8044 60.5247 43.7317 56.7649C44.6926 54.8837 45.6534 53.0024 46.6143 51.1211C47.0863 50.2015 47.5541 49.2776 48.0219 48.358C48.1736 48.0556 48.4054 47.2913 48.7341 47.1612C49.0133 47.1178 49.2977 47.1178 49.5769 47.1612H50.5125C52.9568 47.1192 55.4053 47.073 57.8538 47.1612C58.0603 47.1612 58.0603 46.842 57.8538 46.8336C54.7479 46.737 51.6419 46.8336 48.5402 46.8798C48.4816 46.879 48.427 46.9094 48.3969 46.9596C44.8527 53.9598 41.2579 60.939 37.6884 67.9267C37.5915 68.1114 37.8739 68.2794 37.9708 68.0904L37.9581 68.0484Z" fill="#83FFA3"/>
<path d="M47.0569 68.0401C47.6848 61.0315 48.0388 54.0061 48.6878 47.0017C48.7089 46.7917 48.3844 46.7917 48.3633 47.0017C47.7143 54.0061 47.3603 61.0315 46.7281 68.0401C46.7281 68.2459 47.0358 68.2459 47.0569 68.0401Z" fill="#83FFA3"/>
<path d="M57.9002 46.8379C52.6744 52.4565 47.2464 57.882 41.9407 63.4208C40.4938 64.9242 39.0609 66.4401 37.6421 67.9687C37.4988 68.1199 37.7306 68.3508 37.8739 68.1954C43.1291 62.5264 48.5992 57.0547 53.9556 51.4781C55.3604 50.0167 56.7525 48.547 58.1319 47.0688C58.2752 46.9176 58.0434 46.6867 57.9002 46.8379Z" fill="#83FFA3"/>
<path d="M37.5537 68.0107C40.6596 68.1619 43.7824 68.2963 46.8925 68.2081C47.1032 68.2081 47.1032 67.8763 46.8925 67.8847C43.7824 67.9687 40.6596 67.8386 37.5537 67.6874C37.343 67.6874 37.343 68.0023 37.5537 68.0107Z" fill="#83FFA3"/>
<path d="M42.5644 48.7233C42.407 48.9828 42.3599 49.2942 42.4338 49.5884C42.5137 49.8382 42.7179 50.0289 42.9732 50.0923C43.5979 50.194 44.2355 50.0105 44.7095 49.5926C45.2031 49.2337 45.482 48.6511 45.4512 48.043C45.3794 47.5324 44.9221 47.165 44.4061 47.2032C44.0459 47.244 43.7124 47.4124 43.4663 47.6777C43.3297 47.8033 43.2002 47.9365 43.0786 48.0766C42.9616 48.1936 42.8761 48.338 42.8299 48.4965C42.792 48.7023 43.1081 48.7905 43.146 48.5847C43.1839 48.379 43.4199 48.1648 43.5674 48.0178C43.7329 47.8324 43.9334 47.6811 44.1574 47.5727C44.3364 47.493 44.541 47.4933 44.7198 47.5736C44.8985 47.6538 45.0343 47.8063 45.093 47.9926C45.1661 48.4383 45.0074 48.8904 44.6716 49.1936C44.3153 49.5633 43.8357 49.7903 43.323 49.8319C43.1128 49.8617 42.9022 49.7806 42.7667 49.6178C42.6602 49.3892 42.681 49.1218 42.8215 48.9123C42.9184 48.7275 42.6361 48.5637 42.5392 48.7485L42.5644 48.7233Z" fill="#83FFA3"/>
</g>
<path opacity="0.2" d="M116.584 33.9251L90.6072 83.2835H0.13916L26.1287 33.9251H52.0592L38.8432 39.9595H38.8137C32.0708 42.4077 26.6807 46.1576 23.9246 50.8398C17.6032 61.5648 27.5362 73.0961 46.0917 76.6319C64.6472 80.1677 84.7999 74.3055 91.1087 63.5805C92.4253 61.4361 93.0817 58.9541 92.9967 56.4417L94.3579 33.8999L116.584 33.9251Z" fill="black"/>
<path d="M34.6041 25.6308C33.509 27.5482 32.397 29.5369 31.3357 31.5046C30.2744 33.4724 29.2216 35.4569 28.3506 37.4372C28.1223 37.9323 27.9278 38.4232 27.7249 38.914C27.7037 38.9602 27.7249 38.914 27.7249 38.914C27.7249 38.914 27.7249 38.9476 27.6995 38.9812C27.6846 39.1066 27.6846 39.2333 27.6995 39.3588C27.778 39.7674 27.9072 40.1648 28.0842 40.5419C28.2787 40.9615 28.5071 41.4272 28.765 41.8761C29.9027 43.744 31.1655 45.534 32.545 47.2339L30.896 48.975C28.9335 47.5471 27.1656 45.8731 25.6361 43.9949C24.7492 42.9344 24.063 41.7233 23.6108 40.4203C23.4769 39.9937 23.3945 39.5529 23.3656 39.107C23.3513 38.8439 23.3598 38.58 23.391 38.3183C23.4056 38.1773 23.4281 38.0372 23.4586 37.8987C23.4586 37.8274 23.4967 37.7519 23.5136 37.6805L23.5685 37.4917C23.763 36.9127 23.9491 36.3254 24.1605 35.7632C24.9891 33.5585 25.9347 31.399 26.9934 29.2936C28.0547 27.1958 29.1582 25.1861 30.3759 23.1638L34.6041 25.6308Z" fill="#FFC3BD"/>
<path d="M31.9319 46.6801L34.1813 47.4101L32.2913 50.5736C32.2913 50.5736 30.6339 49.8309 30.3041 48.3247L31.9319 46.6801Z" fill="#FFC3BD"/>
<path d="M37.2594 48.6352L35.065 51.0729L32.2955 50.5778L34.1855 47.4143L37.2594 48.6352Z" fill="#FFC3BD"/>
<path d="M47.7454 10.9086C47.6819 11.1561 47.7454 11.3911 47.9272 11.433C48.109 11.475 48.2739 11.3071 48.35 11.0596C48.4261 10.8121 48.35 10.5729 48.1682 10.531C47.9864 10.489 47.8088 10.6568 47.7454 10.9086Z" fill="#263238"/>
<path d="M47.7411 11.3868C47.8435 12.2222 48.0611 13.0396 48.388 13.8161C47.9742 13.9778 47.5094 13.9486 47.1195 13.7364L47.7411 11.3868Z" fill="#ED847E"/>
<path d="M47.1872 9.29331C47.1317 9.2693 47.0958 9.21493 47.0958 9.15485C47.0958 9.09478 47.1317 9.04041 47.1872 9.0164C47.6385 8.82735 48.1543 8.86804 48.5698 9.12549C48.6371 9.17586 48.6537 9.26927 48.6079 9.33946C48.5586 9.40624 48.4643 9.42121 48.3965 9.37302C48.0633 9.17468 47.6546 9.14661 47.2971 9.2975C47.2614 9.31062 47.2218 9.30912 47.1872 9.29331Z" fill="#263238"/>
<path d="M39.124 11.882C39.5849 14.2105 40.0458 18.4774 38.401 20.0298C38.401 20.0298 39.0437 22.3961 43.4029 22.3961C48.2019 22.3961 45.6989 20.0298 45.6989 20.0298C43.0774 19.413 43.1619 17.4831 43.5848 15.6748L39.124 11.882Z" fill="#FFC3BD"/>
<path d="M37.5976 21.2297C37.3735 19.971 37.1241 18.5445 37.9528 18.1795C38.8619 17.7599 43.6397 17.7347 45.183 18.792C46.7263 19.8493 46.0286 22.2828 46.0286 22.2828L37.5976 21.2297Z" fill="#263238"/>
<path opacity="0.6" d="M37.5976 21.2297C37.3735 19.971 37.1241 18.5445 37.9528 18.1795C38.8619 17.7599 43.6397 17.7347 45.183 18.792C46.7263 19.8493 46.0286 22.2828 46.0286 22.2828L37.5976 21.2297Z" fill="#83FFA3"/>
<path fill-rule="evenodd" clip-rule="evenodd" d="M23.0865 128.288C22.8367 128.465 22.5485 128.487 22.2873 128.349C22.0132 128.264 21.7465 128.134 21.4924 127.961C21.4643 127.945 21.4458 127.906 21.4459 127.862C21.4486 127.818 21.4683 127.78 21.4967 127.764C21.5389 127.733 22.541 127.141 22.9638 127.443C23.0595 127.505 23.1321 127.624 23.1626 127.77C23.2169 127.948 23.1862 128.157 23.0865 128.288ZM22.9004 127.647L22.8116 127.603V127.634C22.4406 127.593 22.0678 127.673 21.7208 127.868C22.1774 128.115 22.8159 128.331 22.9892 128.115C23.0146 128.097 23.0569 128.035 23.0146 127.838C22.9976 127.753 22.9558 127.683 22.9004 127.647Z" fill="#83FFA3"/>
<path fill-rule="evenodd" clip-rule="evenodd" d="M21.5306 127.776H21.4967C21.4828 127.774 21.4697 127.769 21.4587 127.76C21.438 127.74 21.4298 127.711 21.4375 127.684C21.438 127.683 21.4387 127.681 21.4396 127.678C21.4683 127.59 21.7388 126.758 22.1479 126.547C22.2522 126.492 22.3748 126.483 22.4861 126.522C22.6015 126.546 22.6832 126.648 22.6806 126.765C22.6722 127.126 21.8942 127.672 21.5306 127.776ZM22.4354 126.648H22.4143C22.3495 126.63 22.2805 126.636 22.2198 126.665C21.9386 126.899 21.7352 127.212 21.6363 127.563C22.0126 127.386 22.5284 126.958 22.5284 126.744C22.5284 126.723 22.5284 126.677 22.4354 126.648Z" fill="#83FFA3"/>
<path fill-rule="evenodd" clip-rule="evenodd" d="M46.8911 129.57C46.7558 129.824 46.3711 129.907 45.9483 129.907C45.6236 129.903 45.2998 129.861 44.98 129.783C44.9496 129.772 44.9264 129.737 44.9208 129.694C44.9149 129.649 44.9302 129.604 44.9589 129.582C44.9969 129.546 46.1174 128.654 46.6501 128.855C46.7516 128.888 46.8388 128.977 46.8911 129.103C46.9625 129.243 46.9625 129.43 46.8911 129.57ZM46.6036 129.038C46.5545 129.029 46.5047 129.029 46.4556 129.038H46.443C46.0039 129.112 45.579 129.302 45.1914 129.6C45.7876 129.718 46.5994 129.712 46.7516 129.422C46.7854 129.381 46.8066 129.316 46.7516 129.186C46.7187 129.111 46.6653 129.057 46.6036 129.038Z" fill="#83FFA3"/>
<path fill-rule="evenodd" clip-rule="evenodd" d="M45.0097 129.505H44.9801C44.9645 129.508 44.9484 129.507 44.9336 129.501C44.9113 129.484 44.9 129.457 44.904 129.43C44.904 129.396 44.9759 128.536 45.3987 128.205C45.5155 128.105 45.6685 128.058 45.8215 128.074C46.0287 128.095 46.1048 128.2 46.1048 128.284C46.164 128.666 45.3945 129.333 45.0097 129.505ZM45.8046 128.213H45.7623C45.665 128.214 45.5709 128.248 45.4959 128.309C45.2573 128.586 45.1097 128.929 45.0731 129.291C45.4706 129.052 45.9906 128.511 45.9568 128.297C45.9566 128.296 45.9564 128.295 45.9562 128.294C45.9515 128.274 45.9374 128.213 45.8046 128.213Z" fill="#83FFA3"/>
<path d="M41.4495 129.43H44.6587L44.9758 122.054H41.7708L41.4495 129.43Z" fill="#FFC3BD"/>
<path d="M17.9324 126.929L21.0655 127.605L24.2155 120.736L21.0781 120.061L17.9324 126.929Z" fill="#FFC3BD"/>
<path d="M21.3699 127.29L17.8436 126.535C17.7155 126.507 17.5853 126.572 17.5307 126.69L16.3087 129.321C16.2492 129.451 16.2529 129.601 16.3188 129.729C16.3846 129.856 16.5055 129.947 16.647 129.975C17.8816 130.218 18.4947 130.273 20.0296 130.609C20.9851 130.814 23.1373 131.334 24.4522 131.616C25.7672 131.897 26.2238 130.642 25.7207 130.411C23.4206 129.367 22.4608 128.448 21.835 127.592C21.7227 127.438 21.5571 127.33 21.3699 127.29Z" fill="#263238"/>
<path d="M44.6375 129.06H41.1324C41.0013 129.06 40.888 129.151 40.8618 129.279L40.2275 132.106C40.1949 132.245 40.2285 132.391 40.3186 132.501C40.4086 132.612 40.5451 132.675 40.6884 132.673C41.9569 132.652 43.7792 132.581 45.369 132.581C47.2252 132.581 48.8277 132.681 51.0094 132.681C52.3244 132.681 52.7007 131.36 52.1383 131.238C49.631 130.693 47.5803 130.634 45.4113 129.308C45.181 129.157 44.9134 129.071 44.6375 129.06Z" fill="#263238"/>
<path d="M51.0348 23.8771C52.0791 26.214 53.2208 28.6139 54.4173 30.9089C55.0135 32.0585 55.635 33.1913 56.2777 34.2653C56.8991 35.3269 57.5853 36.3497 58.3326 37.3281L58.6032 37.6638C58.6709 37.7267 58.6032 37.6973 58.7089 37.7728C58.8777 37.9194 59.0587 38.0514 59.2501 38.1672C59.7577 38.4743 60.2813 38.7544 60.8188 39.0063C61.952 39.5476 63.157 40.0678 64.3789 40.5587C66.8186 41.5447 69.3301 42.4887 71.8248 43.4327L71.2159 45.7487C68.5091 45.3174 65.8275 44.7432 63.1824 44.0285C61.8547 43.6509 60.5271 43.2649 59.1867 42.7698C58.4816 42.5114 57.7926 42.2115 57.1234 41.8719C56.7259 41.6675 56.3456 41.4318 55.986 41.1671C55.7566 40.9959 55.5417 40.8065 55.3433 40.6007L54.9501 40.1811C53.9848 39.0983 53.1042 37.9439 52.3159 36.7281C51.5337 35.5576 50.8276 34.3618 50.1511 33.1535C48.8144 30.748 47.6145 28.2702 46.5571 25.7315L51.0348 23.8771Z" fill="#FFC3BD"/>
<path d="M31.6655 20.7514C28.6593 21.4353 23.6108 36.2541 23.6108 36.2541L28.524 37.8736C28.524 37.8736 33.5386 30.5019 35.2426 26.965C37.0227 23.2268 34.7437 20.0507 31.6655 20.7514Z" fill="#83FFA3"/>
<path opacity="0.5" d="M31.6655 20.7514C28.6593 21.4353 23.6108 36.2541 23.6108 36.2541L28.524 37.8736C28.524 37.8736 33.5386 30.5019 35.2426 26.965C37.0227 23.2268 34.7437 20.0507 31.6655 20.7514Z" fill="black"/>
<path d="M29.378 37.1477C29.378 37.1477 24.5621 36.2373 23.4586 35.5576C23.0738 36.1114 22.6129 38.1169 22.9258 38.7085C23.2387 39.3001 27.7248 40.1518 28.3337 39.8035C28.9425 39.4553 29.378 37.1477 29.378 37.1477Z" fill="#263238"/>
<path opacity="0.6" d="M29.378 37.1477C29.378 37.1477 24.5621 36.2373 23.4586 35.5576C23.0738 36.1114 22.6129 38.1169 22.9258 38.7085C23.2387 39.3001 27.7248 40.1518 28.3337 39.8035C28.9425 39.4553 29.378 37.1477 29.378 37.1477Z" fill="#83FFA3"/>
<path opacity="0.3" d="M33.6147 26.0126C32.6972 26.9231 31.8642 29.5075 31.8389 32.7927C32.9001 31.1145 33.9952 29.3145 34.7605 27.8755C34.3969 26.579 33.991 25.6518 33.6147 26.0126Z" fill="black"/>
<path d="M49.6438 20.915C49.6438 20.915 53.0602 24.7414 49.8341 48.438H32.6718C32.5534 45.8242 34.2067 33.0696 31.6655 20.7472C33.5631 20.3835 35.4825 20.1425 37.4116 20.0255C39.8422 19.887 42.2789 19.887 44.7095 20.0255C46.3751 20.1942 48.0249 20.4915 49.6438 20.915Z" fill="#83FFA3"/>
<path opacity="0.5" d="M49.6438 20.915C49.6438 20.915 53.0602 24.7414 49.8341 48.438H32.6718C32.5534 45.8242 34.2067 33.0696 31.6655 20.7472C33.5631 20.3835 35.4825 20.1425 37.4116 20.0255C39.8422 19.887 42.2789 19.887 44.7095 20.0255C46.3751 20.1942 48.0249 20.4915 49.6438 20.915Z" fill="black"/>
<path opacity="0.3" d="M47.0984 28.4839C47.424 31.941 49.6353 36.3296 50.9291 38.3183C51.0983 36.0359 51.187 34.0472 51.2124 32.3103L47.0984 28.4839Z" fill="black"/>
<path d="M45.3944 23.382C43.3268 27.2629 54.1214 39.8832 54.1214 39.8832L57.8929 36.0862C57.8929 36.0862 52.9967 27.5902 51.8466 23.8226C50.4259 19.1655 46.9673 20.4283 45.3944 23.382Z" fill="#83FFA3"/>
<path opacity="0.5" d="M45.3944 23.382C43.3268 27.2629 54.1214 39.8832 54.1214 39.8832L57.8929 36.0862C57.8929 36.0862 52.9967 27.5902 51.8466 23.8226C50.4259 19.1655 46.9673 20.4283 45.3944 23.382Z" fill="black"/>
<path d="M57.7407 35.3352C57.7407 35.3352 54.4681 38.956 53.318 39.5308C53.5971 40.1433 55.0811 41.5824 55.7619 41.6286C56.4426 41.6747 59.4869 38.2973 59.4996 37.6008C59.5123 36.9044 57.7407 35.3352 57.7407 35.3352Z" fill="#263238"/>
<path opacity="0.6" d="M57.7407 35.3352C57.7407 35.3352 54.4681 38.956 53.318 39.5308C53.5971 40.1433 55.0811 41.5824 55.7619 41.6286C56.4426 41.6747 59.4869 38.2973 59.4996 37.6008C59.5123 36.9044 57.7407 35.3352 57.7407 35.3352Z" fill="#83FFA3"/>
<path d="M71.0849 43.4747L74.1926 42.1447L75.1609 45.5011C75.1609 45.5011 72.7888 47.0409 70.8904 45.6941L71.0849 43.4747Z" fill="#FFC3BD"/>
<path d="M77.6597 43.7348C77.5579 43.8021 77.4205 43.7759 77.351 43.676L73.9008 38.5994C73.8671 38.5512 73.8544 38.4915 73.8655 38.4339C73.8766 38.3762 73.9107 38.3255 73.96 38.2931C74.0086 38.2596 74.0687 38.247 74.1268 38.2581C74.1849 38.2691 74.236 38.3029 74.2687 38.3518L77.7189 43.4285C77.7526 43.4767 77.7653 43.5363 77.7542 43.594C77.743 43.6516 77.709 43.7024 77.6597 43.7348Z" fill="#263238"/>
<path d="M77.4695 42.3922L78.8352 44.3977L75.1609 45.4886L74.1926 42.1405L77.4695 42.3922Z" fill="#FFC3BD"/>
<path opacity="0.2" d="M44.9758 122.058L44.8151 125.859H41.6017L41.7666 122.058H44.9758Z" fill="black"/>
<path opacity="0.2" d="M21.0781 120.065L24.2154 120.736L22.5918 124.277L19.4545 123.602L21.0781 120.065Z" fill="black"/>
<path d="M39.5215 8.24851C38.9211 11.3532 38.4095 13.1406 39.5596 15.1041C41.2889 18.041 45.4494 17.6214 46.9716 14.7643C48.3457 12.1882 49.0857 7.54785 46.3966 5.56334C45.1914 4.66847 43.6052 4.45674 42.2045 5.00378C40.8039 5.55083 39.7887 6.77861 39.5215 8.24851Z" fill="#FFC3BD"/>
<path d="M38.2868 6.71299C40.5489 5.97876 44.8363 4.39703 46.35 8.00942C47.8637 11.6218 41.699 15.3937 40.1303 15.3978C38.8703 15.4104 35.8007 7.55211 38.2868 6.71299Z" fill="#263238"/>
<path d="M42.997 8.23597C47.4282 10.6484 51.4534 7.17869 49.6564 3.25582C47.8594 -0.667056 43.9314 -0.100652 45.1534 1.81253C46.3753 3.72572 42.997 0.826572 40.6631 1.72023C39.0267 2.34537 41.1493 3.3649 41.348 4.10332C41.5467 4.84175 37.0649 4.86272 36.4687 5.97036C35.8725 7.07799 38.0247 9.38556 39.1282 9.02474C40.2318 8.66392 42.2148 7.80383 42.997 8.23597Z" fill="#263238"/>
<path d="M44.2782 10.0946C44.132 10.8665 44.248 11.6648 44.608 12.3644C45.0858 13.279 45.9145 13.0063 46.2739 12.1378C46.5995 11.3533 46.739 9.93514 46.0202 9.31C45.3014 8.68486 44.4643 9.16735 44.2782 10.0946Z" fill="#FFC3BD"/>
<path d="M43.7454 48.438C43.7454 48.438 40.105 72.7724 38.105 81.8852C35.9148 91.8707 24.2112 123.87 24.2112 123.87L18.4651 122.637C18.4651 122.637 27.2301 92.6762 28.4774 82.7789C29.8347 72.0507 32.6718 48.4254 32.6718 48.4254L43.7454 48.438Z" fill="#263238"/>
<path d="M25.5854 121.97C25.6108 121.97 24.5157 124.03 24.5157 124.03L18.0508 122.641L18.5962 120.715L25.5854 121.97Z" fill="#83FFA3"/>
<path opacity="0.3" d="M41.4454 57.1061C37.2172 57.9242 37.678 73.5066 38.1854 81.5202C39.3989 75.8562 41.179 64.956 42.3925 57.2194C42.0986 57.077 41.7649 57.0371 41.4454 57.1061Z" fill="black"/>
<path d="M49.8256 48.4381C49.8256 48.4381 50.2484 72.2439 49.9186 81.9524C49.5634 92.0512 46.0202 125.121 46.0202 125.121H40.5743C40.5743 125.121 40.3713 92.6428 40.1303 82.7244C39.8682 71.9124 38.5532 48.4381 38.5532 48.4381L49.8256 48.4381Z" fill="#263238"/>
<path d="M47.0562 122.973C47.0815 122.973 46.7475 125.213 46.7475 125.213H40.1346L39.957 123.216L47.0562 122.973Z" fill="#83FFA3"/>
</svg>
