<svg width="146" height="135" viewBox="0 0 146 135" fill="none" xmlns="http://www.w3.org/2000/svg">
<rect x="0.218384" y="61.8193" width="145.465" height="5.2299" fill="#407BFF"/>
<rect opacity="0.3" x="0.218384" y="61.8193" width="38.9319" height="5.2299" fill="white"/>
<path d="M39.7711 67.0492H36.3844L38.157 132.597H39.7711H41.3852L43.1621 67.0492H39.7711Z" fill="#407BFF"/>
<path opacity="0.3" d="M38.157 132.597H39.7711V68.4564L36.4401 69.0656L38.157 132.597Z" fill="white"/>
<path d="M7.67245 67.0492H4.28577L6.05832 132.597H7.67245H9.28659L11.0591 67.0492H7.67245Z" fill="#407BFF"/>
<path opacity="0.3" d="M6.05833 132.597H7.67247V68.4564L4.33716 69.0656L6.05833 132.597Z" fill="white"/>
<path d="M138.229 67.0492H134.842L136.615 132.597H138.229H139.843L141.62 67.0492H138.229Z" fill="#407BFF"/>
<path opacity="0.3" d="M136.615 132.597H138.229V68.4564L134.898 69.0656L136.615 132.597Z" fill="white"/>
<path d="M106.13 67.0492H102.744L104.516 132.597H106.13H107.745L109.517 67.0492H106.13Z" fill="#407BFF"/>
<path opacity="0.3" d="M104.516 132.597H106.13V68.4564L102.799 69.0656L104.516 132.597Z" fill="white"/>
<path d="M69.2665 33.8206H34.6803C34.111 33.798 33.5652 34.0498 33.2121 34.4978C32.859 34.9459 32.7411 35.5362 32.8949 36.0859L37.5018 58.1167C37.8065 59.397 38.9213 60.3197 40.2334 60.3777H74.8453C75.4136 60.3999 75.9583 60.1487 76.3113 59.7018C76.6642 59.2548 76.7829 58.6659 76.6307 58.1167L72.0195 36.0859C71.7143 34.7965 70.588 33.8697 69.2665 33.8206Z" fill="#263238"/>
<path d="M40.5332 59.1207C39.6482 59.0608 38.9019 58.4377 38.6836 57.5762L34.0767 35.5454C33.9968 35.2501 34.0551 34.9344 34.2351 34.6873C34.4218 34.4757 34.6942 34.3605 34.9758 34.3741H69.5876C70.4726 34.434 71.2189 35.0572 71.4372 35.9186L76.0442 57.9494C76.124 58.2447 76.0657 58.5604 75.8857 58.8075C75.7002 59.0207 75.4269 59.1362 75.145 59.1207H40.5332Z" fill="white"/>
<path opacity="0.4" d="M66.6462 57.3574L62.279 36.4678C62.2293 36.2174 62.2935 35.9578 62.454 35.7596C62.6146 35.5614 62.8549 35.4451 63.1096 35.4424H68.727C69.1282 35.4455 69.4734 35.7272 69.5576 36.1203L73.9248 56.9927C73.9745 57.2431 73.9103 57.5026 73.7498 57.7008C73.5892 57.899 73.3489 58.0153 73.0942 58.0181H67.4768C67.0808 58.0168 66.7373 57.7436 66.6462 57.3574Z" fill="#407BFF"/>
<path d="M36.9582 37.27L36.7698 36.3647H43.7058L43.8942 37.27H36.9582Z" fill="#407BFF"/>
<path d="M40.1607 39.5182L39.9723 38.6129H52.1275L52.3202 39.5182H40.1607Z" fill="#EBEBEB"/>
<path d="M40.8029 41.7621L40.6102 40.8568H54.2383L54.4267 41.7621H40.8029Z" fill="#EBEBEB"/>
<path d="M41.4408 44.0101L41.2524 43.1049H52.2217L52.4144 44.0101H41.4408Z" fill="#EBEBEB"/>
<path d="M39.0689 47.6527L38.8762 46.7474H43.2648L43.4532 47.6527H39.0689Z" fill="#407BFF"/>
<path d="M42.2672 49.8965L42.0789 48.9912H47.4222L47.6149 49.8965H42.2672Z" fill="#EBEBEB"/>
<path d="M48.8951 49.8965L48.7024 48.9912H54.05L54.2384 49.8965H48.8951Z" fill="#EBEBEB"/>
<path d="M42.9095 52.1446L42.7211 51.2394H60.7891L60.9775 52.1446H42.9095Z" fill="#EBEBEB"/>
<path d="M43.5474 54.3884L43.359 53.4832H57.137L57.3253 54.3884H43.5474Z" fill="#EBEBEB"/>
<path d="M85.425 60.2448H39.8867C38.6451 60.2448 37.8402 60.9527 38.1013 61.8193H88.1566C87.8997 60.9527 86.6667 60.2448 85.425 60.2448Z" fill="#263238"/>
<path opacity="0.1" d="M24.9227 28.2518L20.5513 7.3751C20.503 7.12536 20.5678 6.86704 20.7282 6.66987C20.8886 6.4727 21.128 6.357 21.3819 6.354H56.7473C57.1471 6.35666 57.4919 6.63626 57.5779 7.02758L61.9493 27.8871C61.999 28.1375 61.9349 28.3971 61.7743 28.5953C61.6138 28.7935 61.3735 28.9098 61.1187 28.9125H25.7533C25.3573 28.9113 25.0138 28.638 24.9227 28.2518Z" fill="#407BFF"/>
<path d="M37.4934 7.04045H30.0692L29.9022 6.23816H37.3264L37.4934 7.04045Z" fill="#407BFF"/>
<path opacity="0.4" d="M36.286 8.31901H33.306L33.139 7.51672H36.119L36.286 8.31901Z" fill="#407BFF"/>
<path opacity="0.4" d="M41.244 8.31901H36.6542L36.4872 7.51672H41.077L41.244 8.31901Z" fill="#407BFF"/>
<path opacity="0.4" d="M43.2434 9.59318H33.5714L33.4044 8.79089H43.0807L43.2434 9.59318Z" fill="#407BFF"/>
<path opacity="0.4" d="M42.0146 10.8717H33.8369L33.6699 10.0695H41.8476L42.0146 10.8717Z" fill="#407BFF"/>
<path opacity="0.4" d="M47.4392 24.4333H42.2329L42.3999 25.2313H47.6062L47.4392 24.4333Z" fill="#407BFF"/>
<path d="M40.9485 22.6829H33.3231L33.1561 21.8806H40.7815L40.9485 22.6829Z" fill="#407BFF"/>
<path opacity="0.4" d="M44.014 25.7076H36.9238L37.0908 26.5099H44.181L44.014 25.7076Z" fill="#407BFF"/>
<path opacity="0.4" d="M41.8648 24.4333H36.6584L36.8254 25.2313H42.0318L41.8648 24.4333Z" fill="#407BFF"/>
<path opacity="0.4" d="M46.8056 23.1549H36.3929L36.5599 23.9572H46.9726L46.8056 23.1549Z" fill="#407BFF"/>
<path d="M37.2321 1.08548H28.8318L28.6648 0.287476H37.0651L37.2321 1.08548Z" fill="#407BFF"/>
<path opacity="0.4" d="M41.3809 4.1145H32.1157L32.2827 4.91679H41.5436L41.3809 4.1145Z" fill="#407BFF"/>
<path opacity="0.4" d="M39.527 2.84021H31.8502L32.0172 3.63821H39.694L39.527 2.84021Z" fill="#407BFF"/>
<path opacity="0.4" d="M40.0366 1.56165H31.5848L31.7518 2.36394H40.2035L40.0366 1.56165Z" fill="#407BFF"/>
<path d="M37.138 12.9482H31.298L31.131 12.1459H36.971L37.138 12.9482Z" fill="#407BFF"/>
<path opacity="0.4" d="M46.3089 15.9729H34.8987L35.0657 16.7752H46.4716L46.3089 15.9729Z" fill="#407BFF"/>
<path opacity="0.4" d="M39.3601 14.6986H34.6333L34.8003 15.5009H39.5271L39.3601 14.6986Z" fill="#407BFF"/>
<path opacity="0.4" d="M44.4894 14.6986H39.7626L39.9296 15.5009H44.6564L44.4894 14.6986Z" fill="#407BFF"/>
<path opacity="0.4" d="M44.7805 13.4202H34.3678L34.5348 14.2225H44.9432L44.7805 13.4202Z" fill="#407BFF"/>
<path opacity="0.4" d="M44.7591 19.8042H35.6951L35.862 20.6022H44.926L44.7591 19.8042Z" fill="#407BFF"/>
<path opacity="0.4" d="M38.067 18.5256H35.4296L35.5965 19.3279H38.2297L38.067 18.5256Z" fill="#407BFF"/>
<path opacity="0.4" d="M42.1901 18.5256H38.4266L38.5936 19.3279H42.3571L42.1901 18.5256Z" fill="#407BFF"/>
<path opacity="0.4" d="M45.5769 17.2515H35.1642L35.3312 18.0495H45.7438L45.5769 17.2515Z" fill="#407BFF"/>
<path opacity="0.4" d="M53.7759 17.0369H50.0467L49.8798 16.2346H53.6133L53.7759 17.0369Z" fill="#407BFF"/>
<path opacity="0.4" d="M59.9842 17.0369H54.2384L54.0714 16.2346H59.8172L59.9842 17.0369Z" fill="#407BFF"/>
<path opacity="0.4" d="M62.4247 18.3154H50.3122L50.1453 17.5131H62.2577L62.4247 18.3154Z" fill="#407BFF"/>
<path opacity="0.4" d="M60.8147 19.5896H50.5776L50.4106 18.7874H60.6478L60.8147 19.5896Z" fill="#407BFF"/>
<path opacity="0.4" d="M65.4003 11.9614H53.8016L53.9686 12.7594H65.5673L65.4003 11.9614Z" fill="#407BFF"/>
<path opacity="0.4" d="M63.1482 10.683H53.5361L53.7031 11.4853H63.3109L63.1482 10.683Z" fill="#407BFF"/>
<path d="M61.4099 9.40869H50.8259L50.9929 10.2067H61.5768L61.4099 9.40869Z" fill="#407BFF"/>
<path opacity="0.4" d="M65.9227 24.6951H51.6395L51.8065 25.4974H66.0897L65.9227 24.6951Z" fill="#407BFF"/>
<path opacity="0.4" d="M57.2911 23.4209H51.374L51.541 24.2189H57.4581L57.2911 23.4209Z" fill="#407BFF"/>
<path opacity="0.4" d="M63.7133 23.4209H57.7963L57.9632 24.2189H63.8803L63.7133 23.4209Z" fill="#407BFF"/>
<path opacity="0.4" d="M64.1415 22.1423H51.1085L51.2755 22.9446H64.3085L64.1415 22.1423Z" fill="#407BFF"/>
<path opacity="0.4" d="M63.7818 28.5221H52.4358L52.6028 29.3244H63.9488L63.7818 28.5221Z" fill="#407BFF"/>
<path opacity="0.4" d="M55.4715 27.2478H52.1704L52.3374 28.0501H55.6384L55.4715 27.2478Z" fill="#407BFF"/>
<path opacity="0.4" d="M60.635 27.2478H55.9253L56.0923 28.0501H60.8019L60.635 27.2478Z" fill="#407BFF"/>
<path opacity="0.4" d="M64.9422 25.9694H51.9049L52.0719 26.7717H65.1048L64.9422 25.9694Z" fill="#407BFF"/>
<path opacity="0.4" d="M30.2275 29.5132H21.3477L21.5146 30.3155H30.3945L30.2275 29.5132Z" fill="#407BFF"/>
<path opacity="0.4" d="M27.603 28.2389H21.0823L21.2493 29.0369H27.7657L27.603 28.2389Z" fill="#407BFF"/>
<path opacity="0.4" d="M34.5776 28.2389H28.0612L28.2281 29.0369H34.7489L34.5776 28.2389Z" fill="#407BFF"/>
<path opacity="0.4" d="M33.854 26.9604H20.8168L20.9838 27.7627H34.0167L33.854 26.9604Z" fill="#407BFF"/>
<path d="M133.562 53.4832H128.065L128.707 61.8193H132.92L133.562 53.4832Z" fill="#407BFF"/>
<path opacity="0.4" d="M133.562 53.4832H128.065L128.707 61.8193H132.92L133.562 53.4832Z" fill="white"/>
<path d="M13.7566 47.6956H21.6603L18.9629 61.8193H11.0592L13.7566 47.6956Z" fill="#263238"/>
<path d="M23.8225 43.9115H12.6605L15.786 61.8193H26.948L23.8225 43.9115Z" fill="#407BFF"/>
<path d="M12.0011 43.9115H12.6605L15.786 61.8193H15.1266L12.0011 43.9115Z" fill="#407BFF"/>
<path opacity="0.3" d="M12.0011 43.9115H12.6605L15.786 61.8193H15.1266L12.0011 43.9115Z" fill="black"/>
<path d="M17.3916 59.9015L14.934 45.825H22.2211L24.6744 59.9015H17.3916Z" fill="white"/>
<path opacity="0.6" d="M24.3276 59.9015L21.8743 45.825H22.2211L24.6744 59.9015H24.3276Z" fill="#407BFF"/>
<path d="M79.4728 21.3458C79.6314 21.6902 79.58 22.0561 79.3528 22.1594C79.1257 22.2628 78.8171 22.069 78.6585 21.7289C78.5 21.3888 78.5557 21.0186 78.7785 20.9153C79.0014 20.812 79.3143 20.9842 79.4728 21.3458Z" fill="#263238"/>
<path d="M79.61 22.026C79.61 22.026 79.7471 24.3766 79.3271 25.737C80.1843 26.0254 81.11 25.3065 81.11 25.3065L79.61 22.026Z" fill="#FF5652"/>
<path d="M79.5157 18.5C79.4793 18.5303 79.4343 18.5484 79.3872 18.5517C78.8214 18.5667 78.2971 18.8533 77.9772 19.3223C77.9388 19.3944 77.8644 19.4398 77.783 19.4407C77.7016 19.4416 77.6262 19.3978 77.5863 19.3266C77.5464 19.2553 77.5484 19.1678 77.5915 19.0985C77.9854 18.4976 78.6456 18.1267 79.3615 18.104C79.4576 18.0986 79.5462 18.1559 79.5813 18.2459C79.6164 18.336 79.5899 18.4384 79.5157 18.5Z" fill="#263238"/>
<path d="M92.0942 20.8119C93.4185 25.4183 94.8971 28.9916 96.7014 31.0322C96.7014 31.0322 96.7357 34.6527 90.5942 36.3748C83.84 38.269 86.4285 33.9123 86.4285 33.9123C89.8571 31.9965 89.5314 29.1035 86.9514 28.0014L92.0942 20.8119Z" fill="#FF8B7B"/>
<path d="M98.1328 30.1497C98.0128 28.4664 97.8542 26.5463 96.8214 26.4947C95.6814 26.443 89.0814 29.4049 87.6714 31.4929C86.2614 33.5809 89.0171 35.6258 89.0171 35.6258L98.1328 30.1497Z" fill="#263238"/>
<path d="M84.6243 56.2169L78.9243 56.0275L79.0272 60.8233C79.0272 60.8233 83.9986 60.3067 84.2172 58.9937L84.6243 56.2169Z" fill="#FF8B7B"/>
<path d="M75.9114 58.3824L75.3114 60.8363L79.0271 60.8277L78.9243 56.0319L75.9114 58.3824Z" fill="#FF8B7B"/>
<path d="M107.501 36.2887L107.381 37.52C107.343 37.9161 107.291 38.3035 107.24 38.6953C107.141 39.4745 107.017 40.2537 106.884 41.0286C106.627 42.5828 106.293 44.1283 105.907 45.6824C105.515 47.2664 105.04 48.8284 104.484 50.3621C104.189 51.1499 103.88 51.9377 103.511 52.7385C103.14 53.5784 102.71 54.3912 102.226 55.1708C102.11 55.3732 101.964 55.6014 101.823 55.7908C101.681 55.9802 101.544 56.2213 101.394 56.4193C101.244 56.6174 101.086 56.8498 100.889 57.0522L100.61 57.3707C100.51 57.4883 100.404 57.6004 100.293 57.7065C99.4339 58.5516 98.427 59.2303 97.3229 59.7084C95.629 60.4383 93.8313 60.8959 91.9957 61.0645C91.16 61.1635 90.3329 61.2023 89.5229 61.2238C88.7129 61.2453 87.9029 61.2238 87.1057 61.1807C86.3086 61.1377 85.52 61.0688 84.7357 60.9741C83.9515 60.8794 83.1886 60.7545 82.3572 60.5866L82.4943 56.0878C85.2308 55.6071 87.9358 54.9602 90.5943 54.1505C91.1856 53.9574 91.7664 53.7333 92.3343 53.4789C92.8179 53.274 93.2801 53.0216 93.7143 52.7256C93.9668 52.5727 94.181 52.3636 94.34 52.1142L94.4643 51.9162C94.5219 51.8316 94.5748 51.744 94.6229 51.6536C94.684 51.5548 94.7398 51.4527 94.79 51.3479C94.8457 51.236 94.9057 51.1327 94.9615 51.0078C95.4649 49.9036 95.8791 48.7605 96.2 47.5896C96.5515 46.3239 96.8815 45.0065 97.1472 43.6418C97.4129 42.2771 97.67 40.8995 97.9057 39.5089L98.2315 37.4167L98.5272 35.3804L107.501 36.2887Z" fill="#407BFF"/>
<path opacity="0.2" d="M107.501 36.2887L107.381 37.52C107.343 37.9161 107.291 38.3035 107.24 38.6953C107.141 39.4745 107.017 40.2537 106.884 41.0286C106.627 42.5828 106.293 44.1283 105.907 45.6824C105.515 47.2664 105.04 48.8284 104.484 50.3621C104.189 51.1499 103.88 51.9377 103.511 52.7385C103.14 53.5784 102.71 54.3912 102.226 55.1708C102.11 55.3732 101.964 55.6014 101.823 55.7908C101.681 55.9802 101.544 56.2213 101.394 56.4193C101.244 56.6174 101.086 56.8498 100.889 57.0522L100.61 57.3707C100.51 57.4883 100.404 57.6004 100.293 57.7065C99.4339 58.5516 98.427 59.2303 97.3229 59.7084C95.629 60.4383 93.8313 60.8959 91.9957 61.0645C91.16 61.1635 90.3329 61.2023 89.5229 61.2238C88.7129 61.2453 87.9029 61.2238 87.1057 61.1807C86.3086 61.1377 85.52 61.0688 84.7357 60.9741C83.9515 60.8794 83.1886 60.7545 82.3572 60.5866L82.4943 56.0878C85.2308 55.6071 87.9358 54.9602 90.5943 54.1505C91.1856 53.9574 91.7664 53.7333 92.3343 53.4789C92.8179 53.274 93.2801 53.0216 93.7143 52.7256C93.9668 52.5727 94.181 52.3636 94.34 52.1142L94.4643 51.9162C94.5219 51.8316 94.5748 51.744 94.6229 51.6536C94.684 51.5548 94.7398 51.4527 94.79 51.3479C94.8457 51.236 94.9057 51.1327 94.9615 51.0078C95.4649 49.9036 95.8791 48.7605 96.2 47.5896C96.5515 46.3239 96.8815 45.0065 97.1472 43.6418C97.4129 42.2771 97.67 40.8995 97.9057 39.5089L98.2315 37.4167L98.5272 35.3804L107.501 36.2887Z" fill="black"/>
<path d="M82.1943 42.0102C84.3194 51.2137 85.5154 60.609 85.7643 70.0535H110.857C110.994 66.9409 110.471 49.3891 107.947 36.7106C107.494 34.3907 106.13 32.3521 104.162 31.0558C102.194 29.7594 99.7885 29.3148 97.49 29.8225L97.37 29.8526C94.2371 30.5673 89.7414 31.721 87.0843 32.7327L86.9771 32.7758C83.3013 34.2115 81.2549 38.1624 82.1943 42.0102Z" fill="#407BFF"/>
<path opacity="0.2" d="M83.8271 50.0607C84.0243 51.2704 84.2257 52.5533 84.41 53.8965C86.4629 51.7439 87.1143 45.1486 87.1143 45.1486L83.8271 50.0607Z" fill="black"/>
<path d="M62.9815 56.5313L57.2857 55.9974L57.0972 60.789C59.0158 61.321 61.0698 60.7388 62.4286 59.2779L62.9815 56.5313Z" fill="#FF8B7B"/>
<path d="M54.5772 57.4095L52.7515 60.7029L57.1143 60.789L57.3029 55.9974L54.5772 57.4095Z" fill="#FF8B7B"/>
<path d="M91.61 39.8017C91.2157 40.5551 90.8643 41.2223 90.47 41.9112C90.0757 42.6 89.6986 43.2716 89.2915 43.9389C88.4857 45.282 87.65 46.5994 86.7672 47.9038C84.9947 50.5751 83.0309 53.1132 80.8915 55.498C79.7457 56.7819 78.5004 57.9724 77.1672 59.0583C77 59.2004 76.8029 59.3381 76.6186 59.4888C76.4343 59.6395 76.2715 59.76 75.9972 59.9193C75.7229 60.0786 75.4915 60.2379 75.2429 60.3757C74.9943 60.5134 74.7372 60.6383 74.4843 60.7502C73.539 61.1625 72.5496 61.4644 71.5357 61.65C69.7624 61.9503 67.955 61.9909 66.17 61.7705C65.334 61.6743 64.5041 61.5305 63.6843 61.34C63.2757 61.2453 62.8729 61.1377 62.4757 61.0171C62.0472 60.8966 61.7 60.7631 61.2415 60.5866L61.9486 56.1438C64.64 55.7778 67.55 55.3086 69.5557 54.3959C70.001 54.2121 70.4203 53.9704 70.8029 53.677C70.9569 53.5705 71.1005 53.4494 71.2315 53.3153C71.2615 53.2766 71.3943 53.1603 71.4929 53.0656C71.5915 52.9709 71.7072 52.8805 71.8143 52.7686C72.7317 51.8554 73.5905 50.8849 74.3857 49.8626C76.1111 47.6267 77.7232 45.3047 79.2157 42.9056C79.9872 41.6873 80.7372 40.4474 81.4872 39.2033L82.5929 37.3349L83.66 35.4966L91.61 39.8017Z" fill="#407BFF"/>
<path d="M84.7229 129.662H80.0343L77.6729 118.748H82.3657L84.7229 129.662Z" fill="#FF8B7B"/>
<path d="M79.7728 128.654H85.0442C85.2323 128.661 85.394 128.79 85.4428 128.973L86.3685 133.166C86.4133 133.372 86.3613 133.588 86.2275 133.751C86.0938 133.914 85.893 134.006 85.6828 134.001C83.8442 133.971 82.9485 133.863 80.63 133.863C79.2028 133.863 77.3728 134.01 75.4057 134.01C73.4385 134.01 73.1771 132.055 73.9828 131.879C77.6 131.082 77.84 129.989 79.01 128.943C79.2197 128.755 79.4917 128.652 79.7728 128.654Z" fill="#263238"/>
<g opacity="0.2">
<path d="M82.37 118.753H77.6729L78.9843 124.797L83.5871 124.379L82.37 118.753Z" fill="black"/>
</g>
<path d="M90.59 15.2756C92.3043 19.6323 93.4957 22.0992 92.3643 25.2634C90.65 30.0205 84.5686 30.5027 81.6115 26.74C78.9543 23.3519 76.6315 16.7953 79.9872 13.1919C81.4814 11.5677 83.7067 10.8372 85.8674 11.2618C88.0281 11.6864 89.8154 13.2054 90.59 15.2756Z" fill="#FF8B7B"/>
<path d="M82.3529 21.8021C81.65 22.7492 81.11 23.4682 81.11 23.4682C81.11 23.4682 79.6657 19.8648 80.2186 18.2116C79.5157 16.8125 78.0972 18.8746 77.5615 16.1495C77.0257 13.4244 79.3443 10.4969 80.2186 9.88992C80.3087 10.2075 80.3492 10.5371 80.3386 10.8672C82.7011 8.94133 85.7035 7.9888 88.7386 8.20233C88.4849 8.5813 88.3234 9.01485 88.2672 9.46802C88.2672 9.46802 93.3543 10.329 94.5115 13.2221C94.1022 13.0258 93.6703 12.8812 93.2257 12.7915C94.1583 14.1347 94.5278 15.7923 94.2543 17.4066C93.8852 19.7608 93.6933 22.1397 93.68 24.5229C93.7272 25.7455 90.3886 28.0832 88.3529 25.5863C86.3172 23.0893 82.3529 21.8021 82.3529 21.8021Z" fill="#263238"/>
<path d="M84.4743 20.8636C84.7398 21.8784 84.6645 22.9528 84.26 23.9202C83.7158 25.2117 82.5972 24.9017 82.0443 23.7738C81.5429 22.7621 81.2215 20.8851 82.1086 19.9853C82.9958 19.0856 84.14 19.6452 84.4743 20.8636Z" fill="#FF8B7B"/>
<path d="M93.2857 70.0363C93.2857 70.0363 71.4971 77.9748 70.8585 88.4749C69.6757 107.818 77.5485 123.131 77.5485 123.131L84.7657 122.356C84.7657 122.356 83.4799 116.131 82.5242 98.6091C81.3199 76.5886 118.524 99.1257 110.861 70.0363H93.2857Z" fill="#407BFF"/>
<path opacity="0.5" d="M93.2857 70.0363C93.2857 70.0363 71.4971 77.9748 70.8585 88.4749C69.6757 107.818 77.5485 123.131 77.5485 123.131L84.7657 122.356C84.7657 122.356 83.4799 116.131 82.5242 98.6091C81.3199 76.5886 118.524 99.1257 110.861 70.0363H93.2857Z" fill="white"/>
<path d="M75.5514 120.462C75.5171 120.462 76.7 123.682 76.7 123.682L85.7 122.795L85.25 119.868L75.5514 120.462Z" fill="#407BFF"/>
<path d="M64.4558 130.2H59.7629L58.3915 119.282H63.0843L64.4558 130.2Z" fill="#FF8B7B"/>
<path d="M59.7286 128.65H64.8714C65.0628 128.648 65.2293 128.781 65.27 128.969L66.2043 133.157C66.2596 133.365 66.2143 133.587 66.082 133.757C65.9496 133.926 65.7457 134.023 65.5314 134.018C63.6843 133.988 61.01 133.885 58.6743 133.889C55.9572 133.889 55.4386 134.04 52.2457 134.044C50.3172 134.044 49.7814 132.094 50.5872 131.892C54.2557 131.082 55.43 130.992 58.5972 129.024C58.9315 128.795 59.3238 128.665 59.7286 128.65Z" fill="#263238"/>
<path opacity="0.2" d="M58.3958 119.286L59.1415 125.232L63.7958 124.913L63.0886 119.286H58.3958Z" fill="black"/>
<path d="M85.7643 70.0363C85.7643 70.0363 50.0643 73.2177 50.45 91.2302C50.8486 109.966 57.8171 122.601 57.8171 122.601H64.7857C64.7857 122.601 63.4657 112.88 63.7014 94.4375C63.77 88.9141 74.8871 87.0887 85.7386 86.4429C95.1157 85.8833 103.893 80.5148 107.536 71.8056L108.286 70.0363H85.7643Z" fill="#407BFF"/>
<path opacity="0.5" d="M85.7643 70.0363C85.7643 70.0363 50.0643 73.2177 50.45 91.2302C50.8486 109.966 57.8171 122.601 57.8171 122.601H64.7857C64.7857 122.601 63.4657 112.88 63.7014 94.4375C63.77 88.9141 74.8871 87.0887 85.7386 86.4429C95.1157 85.8833 103.893 80.5148 107.536 71.8056L108.286 70.0363H85.7643Z" fill="white"/>
<path d="M56.1843 120.72C56.1543 120.72 57.38 123.957 57.38 123.957L65.7971 123.35L65.3043 120.423L56.1843 120.72Z" fill="#407BFF"/>
<path d="M95.1372 49.7938L90.6072 67.3284C89.4489 71.8206 88.8642 76.4426 88.8672 81.0831V89.2327C88.8672 91.2905 90.3758 92.9609 92.2401 92.9609H115.46C117.324 92.9609 118.833 91.2905 118.833 89.2327V81.0831C118.831 76.4425 119.418 71.8205 120.577 67.3284L124.576 51.8301C125.193 49.4494 123.573 47.0945 121.331 47.0945H98.3772C96.8097 47.144 95.4756 48.2556 95.1372 49.7938Z" fill="#263238"/>
<path d="M66.2557 84.4711L67.0143 88.8193C67.4172 91.1053 69.4186 92.9608 71.4886 92.9608H97.3015C99.3715 92.9608 100.73 91.1053 100.327 88.8193L99.5686 84.4711C99.11 81.8666 96.8343 79.7571 94.4772 79.7571H69.7143C67.34 79.7571 65.8015 81.8666 66.2557 84.4711Z" fill="#263238"/>
<path d="M99.7871 97.3262H86.2657L84.9457 92.9608H101.107L99.7871 97.3262Z" fill="#407BFF"/>
<rect x="90.6115" y="97.3262" width="4.83" height="32.4646" fill="#407BFF"/>
<path opacity="0.7" d="M95.4415 129.791H90.6115V98.1055L95.4415 98.6006V129.791Z" fill="white"/>
<path opacity="0.7" d="M94.2628 129.791H93.11V98.3594L94.2628 98.4799V129.791Z" fill="white"/>
<path d="M104.133 134.811H81.9157C81.6501 134.808 81.4158 134.635 81.3341 134.381C81.2525 134.127 81.3417 133.849 81.5557 133.691L85.0786 131.108C86.7722 129.862 88.8165 129.19 90.9157 129.188H95.1372C97.235 129.19 99.2778 129.863 100.97 131.108L104.497 133.691C104.712 133.85 104.801 134.129 104.718 134.383C104.635 134.638 104.399 134.81 104.133 134.811Z" fill="#407BFF"/>
</svg>
