<svg width="25" height="79" viewBox="0 0 25 79" fill="none" xmlns="http://www.w3.org/2000/svg">
<mask id="mask0_1_1222" style="mask-type:luminance" maskUnits="userSpaceOnUse" x="14" y="1" width="11" height="78">
<path fill-rule="evenodd" clip-rule="evenodd" d="M14.0919 1.73767H24.2079V78.3542H14.0919V1.73767Z" fill="white"/>
</mask>
<g mask="url(#mask0_1_1222)">
<path fill-rule="evenodd" clip-rule="evenodd" d="M14.0919 77.0296C14.0919 73.3479 16.2981 71.5013 18.2421 69.8702C20.0353 68.3709 21.4496 67.1875 21.4496 64.7089C21.4496 62.2286 20.0353 61.0453 18.2421 59.5426C16.2981 57.9133 14.0919 56.0666 14.0919 52.3833C14.0919 48.7032 16.2981 46.8565 18.2421 45.2272C20.0353 43.7278 21.4496 42.5428 21.4496 40.0658C21.4496 37.5856 20.0353 36.4006 18.2421 34.8996C16.2981 33.2685 14.0919 31.4219 14.0919 27.7369C14.0919 24.0519 16.2964 22.202 18.2421 20.5709C20.0336 19.0699 21.4496 17.8817 21.4496 15.3997C21.4496 12.9178 20.0336 11.7312 18.2421 10.2302C16.2964 8.5975 14.0919 6.74923 14.0919 3.06257C14.0919 2.33182 14.709 1.73767 15.4719 1.73767C16.233 1.73767 16.8501 2.33182 16.8501 3.06257C16.8501 5.54613 18.2661 6.73278 20.0576 8.23378C22.0033 9.8648 24.2079 11.7131 24.2079 15.3997C24.2079 19.0848 22.0033 20.9347 20.0559 22.5657C18.2661 24.0683 16.8501 25.255 16.8501 27.7369C16.8501 30.2172 18.2661 31.4038 20.0559 32.9032C22.0033 34.5342 24.2079 36.3808 24.2079 40.0658C24.2079 43.7476 22.0016 45.5942 20.0559 47.2236C18.2661 48.7229 16.8501 49.9079 16.8501 52.3833C16.8501 54.8635 18.2661 56.0469 20.0559 57.5479C22.0016 59.1773 24.2079 61.0255 24.2079 64.7089C24.2079 68.3906 22.0016 70.2389 20.0559 71.8683C18.2661 73.3676 16.8501 74.5526 16.8501 77.0296C16.8501 77.7604 16.233 78.3545 15.4719 78.3545C14.709 78.3545 14.0919 77.7604 14.0919 77.0296Z" fill="#F64B4B"/>
</g>
<path fill-rule="evenodd" clip-rule="evenodd" d="M0 75.6685C0 71.9667 2.18136 70.1108 4.10339 68.4733C5.87458 66.9664 7.27458 65.7772 7.27458 63.2862C7.27458 60.7935 5.87458 59.6026 4.10339 58.094C2.18136 56.4565 0 54.6007 0 50.8989C0 47.1987 2.18136 45.3445 4.10339 43.7053C5.87458 42.2001 7.27458 41.0092 7.27458 38.5198C7.27458 36.0272 5.87458 34.8346 4.10339 33.3261C2.18136 31.6886 0 29.831 0 26.1293C0 22.4241 2.17966 20.5666 4.1017 18.9275C5.87458 17.4173 7.27458 16.2247 7.27458 13.7304C7.27458 11.2344 5.87458 10.0435 4.10339 8.53332C2.17966 6.89414 0 5.03497 0 1.33152C0 0.595463 0.61017 0 1.36271 0C2.11695 0 2.72712 0.595463 2.72712 1.33152C2.72712 3.82585 4.12712 5.01843 5.8983 6.52859C7.82203 8.16777 10 10.0253 10 13.7304C10 17.4338 7.82203 19.293 5.89661 20.9322C4.12712 22.4423 2.72712 23.6349 2.72712 26.1293C2.72712 28.6219 4.12712 29.8129 5.89661 31.3214C7.82203 32.9589 10 34.8164 10 38.5198C10 42.22 7.82034 44.0742 5.89661 45.7134C4.12542 47.2202 2.72712 48.4095 2.72712 50.8989C2.72712 53.3899 4.12542 54.5808 5.89661 56.0893C7.82034 57.7268 10 59.5844 10 63.2862C10 66.9863 7.82034 68.8438 5.89661 70.4797C4.12542 71.9865 2.72712 73.1775 2.72712 75.6685C2.72712 76.4029 2.11695 77 1.36271 77C0.61017 77 0 76.4029 0 75.6685Z" fill="#F64B4B"/>
</svg>
